<svg width="26" height="25" viewBox="0 0 26 25" fill="none" xmlns="http://www.w3.org/2000/svg">
<path fill-rule="evenodd" clip-rule="evenodd" d="M12.2078 0.0295599C10.3554 0.221231 8.60549 0.793604 7.05666 1.71441C3.88891 3.59762 1.70031 6.75609 1.10394 10.3051C0.661204 12.9399 1.03095 15.4618 2.21215 17.8633L2.5788 18.6088L1.69923 21.7994C1.21546 23.5543 0.822707 24.9945 0.826442 24.9999C0.830227 25.0054 2.31251 24.6241 4.12046 24.1527L7.40764 23.2956L7.92778 23.5397C9.28557 24.1768 10.406 24.5071 11.8681 24.7013C12.6818 24.8093 14.144 24.8091 14.9601 24.7007C17.2803 24.3927 19.4415 23.4713 21.2421 22.0224C21.7503 21.6135 22.68 20.684 23.0904 20.1745C27.5226 14.6718 26.5173 6.69834 20.8561 2.45273C19.2145 1.22164 17.2915 0.428744 15.1568 0.102757C14.5489 0.00990383 12.8136 -0.0331733 12.2078 0.0295599ZM14.4757 2.13418C15.1431 2.20204 15.9772 2.37983 16.6523 2.5982C17.323 2.81515 18.5244 3.39524 19.1048 3.78245C21.7415 5.54162 23.4119 8.32305 23.7069 11.446C23.8895 13.3785 23.5182 15.2927 22.6191 17.0544C21.1909 19.8527 18.5231 21.8739 15.4378 22.4951C12.9574 22.9945 10.4215 22.5759 8.17308 21.2959L7.73271 21.0452L5.83816 21.5385C4.79615 21.8099 3.9157 22.0319 3.88164 22.0319C3.83962 22.0319 3.98348 21.4374 4.32757 20.1886C4.60693 19.1749 4.83547 18.3184 4.83547 18.2856C4.83547 18.2527 4.72096 18.0425 4.58098 17.8185C3.11084 15.4657 2.6599 12.5174 3.35904 9.82972C4.43693 5.68625 7.98794 2.61599 12.257 2.13652C12.7964 2.07594 13.8915 2.07477 14.4757 2.13418ZM8.44153 6.82342C8.27836 6.91652 8.08048 7.10183 7.88065 7.34861C6.72446 8.77651 6.79804 10.5681 8.09208 12.4972C9.44456 14.5135 11.1244 16.1491 12.8262 17.1069C13.7281 17.6145 15.4071 18.223 16.1727 18.3196C16.7058 18.3869 17.4118 18.3227 17.8222 18.1696C18.2486 18.0106 18.8004 17.6611 19.1005 17.3602C19.4133 17.0466 19.5423 16.7717 19.6582 16.1723C19.7491 15.7022 19.7458 15.4786 19.6459 15.3366C19.5943 15.2633 19.1092 15.0001 18.3311 14.6231C16.6043 13.7864 16.5552 13.7745 16.2687 14.123C16.1747 14.2373 15.8964 14.576 15.6503 14.8756C15.1223 15.5182 15.0165 15.5812 14.6767 15.455C14.2128 15.2829 13.2049 14.7391 12.7515 14.4165C11.9263 13.8292 11.0009 12.8247 10.4773 11.9478C10.1974 11.4792 10.2081 11.4178 10.66 10.8993C11.033 10.4712 11.3231 9.99606 11.3231 9.81324C11.3231 9.76087 11.0639 9.09697 10.7471 8.33791C10.351 7.38924 10.1271 6.91422 10.0306 6.81828C9.89153 6.67991 9.88474 6.67864 9.29196 6.67908C8.72011 6.67952 8.68251 6.68592 8.44153 6.82342Z" fill="#585858"/>
</svg>
