<svg width="93" height="60" viewBox="0 0 93 60" fill="none" xmlns="http://www.w3.org/2000/svg">
<path d="M63.4091 25.7143C70.4264 25.7143 76.0486 19.9714 76.0486 12.8571C76.0486 5.74286 70.4264 0 63.4091 0C56.3918 0 50.7273 5.74286 50.7273 12.8571C50.7273 19.9714 56.3918 25.7143 63.4091 25.7143ZM29.5909 25.7143C36.6082 25.7143 42.2304 19.9714 42.2304 12.8571C42.2304 5.74286 36.6082 0 29.5909 0C22.5736 0 16.9091 5.74286 16.9091 12.8571C16.9091 19.9714 22.5736 25.7143 29.5909 25.7143ZM29.5909 34.2857C19.7414 34.2857 0 39.3 0 49.2857V60H59.1818V49.2857C59.1818 39.3 39.4405 34.2857 29.5909 34.2857ZM63.4091 34.2857C62.1832 34.2857 60.7882 34.3714 59.3086 34.5C64.2123 38.1 67.6364 42.9429 67.6364 49.2857V60H93V49.2857C93 39.3 73.2586 34.2857 63.4091 34.2857Z" fill="white"/>
</svg>
