<svg width="25" height="25" viewBox="0 0 25 25" fill="none" xmlns="http://www.w3.org/2000/svg">
<g clip-path="url(#clip0_264_4)">
<path d="M14.5625 24.4577C14.4171 24.2701 14.3273 24.0453 14.3036 23.809C14.2798 23.5728 14.323 23.3347 14.4282 23.1218C14.7032 22.5874 14.811 21.9765 14.7407 21.3749C14.6833 20.9456 14.5415 20.5319 14.3235 20.1577C14.1094 19.7876 13.8217 19.4653 13.4782 19.2108C12.3099 18.3329 11.4902 17.0697 11.1641 15.6452C8.49534 19.1437 9.51877 21.1296 10.7969 22.8796C10.9463 23.0849 11.0249 23.3333 11.021 23.5872C11.017 23.8411 10.9307 24.0868 10.775 24.2874C10.6159 24.4902 10.4024 24.6436 10.1594 24.7296C9.91919 24.8137 9.6597 24.8262 9.41253 24.7655C7.68596 24.3437 6.06096 23.5405 4.9594 22.2608C4.33542 21.5497 3.85474 20.7247 3.54378 19.8312C3.22937 18.9299 3.08989 17.9769 3.13284 17.0233C3.13284 17.0233 2.92503 13.1749 7.56565 9.4046C7.56565 9.4046 13.05 4.75147 11.1469 1.31085C11.0766 1.14164 11.0557 0.955955 11.0867 0.775355C11.1177 0.594755 11.1992 0.426643 11.3219 0.290534C11.4412 0.157367 11.5985 0.0639635 11.7726 0.0228976C11.9466 -0.0181682 12.1291 -0.00492423 12.2953 0.0608465L12.5235 0.151471C14.5892 1.45727 16.2038 3.36636 17.1485 5.62022C18.0547 7.82803 18.0485 10.4015 17.436 12.6937C17.9438 12.2374 18.3672 11.6921 18.6875 11.0796L18.7328 10.9796C19.0422 10.2343 20.0156 10.4718 20.3813 10.9593C20.5156 11.1733 23.9625 16.1827 22.111 20.4093C21.4349 21.6905 20.4459 22.7799 19.236 23.5765C18.2218 24.2507 17.0878 24.7244 15.8953 24.9718C15.649 25.024 15.3927 25.0034 15.1578 24.9124C14.9209 24.82 14.7147 24.663 14.5625 24.4593V24.4577ZM11.8032 12.3312C11.9489 12.2544 12.1182 12.2352 12.2774 12.2775C12.4366 12.3198 12.574 12.4203 12.6625 12.5593C12.725 12.653 12.7641 12.7562 12.7797 12.8687L12.85 13.414C12.8813 14.2124 12.8719 15.0468 13.1828 15.814C13.5047 16.6015 14.0047 17.2983 14.6391 17.8421C15.4563 18.3799 16.089 19.1554 16.4516 20.064C16.7953 20.9452 16.8422 21.9233 16.5828 22.8343C17.3767 22.5848 18.1145 22.1831 18.7547 21.6515L18.9157 21.5202C19.4407 21.0874 19.8735 20.5468 20.186 19.9312C20.5 19.3171 20.6891 18.6421 20.7391 17.9483C20.8407 16.3468 20.2953 14.739 19.4469 13.3046C19.0594 13.8671 18.525 14.303 17.9078 14.5608C17.5219 14.7249 17.1125 14.8265 16.6953 14.8577C16.4564 14.8724 16.2184 14.8182 16.0094 14.7015C15.7974 14.5812 15.6235 14.4036 15.5078 14.189C15.4125 14.0158 15.3581 13.8232 15.3486 13.6258C15.3391 13.4284 15.3749 13.2314 15.4532 13.0499C16.0969 11.5312 16.2969 9.84678 16.0235 8.21085C15.7002 6.33905 14.8037 4.6138 13.4578 3.27335C13.2141 6.71866 9.68128 9.92647 8.95628 10.6171C8.84339 10.7224 8.72665 10.8235 8.60628 10.9202C4.81565 13.9905 5.07503 16.7874 5.07503 16.9108C5.00173 18.0218 5.25077 19.1302 5.79221 20.103C6.36253 21.1108 7.18284 21.9421 8.16721 22.5093C7.03128 20.0124 7.03128 17.0155 11.2235 12.7187L11.8047 12.328L11.8032 12.3312Z" fill="white"/>
</g>
<defs>
<clipPath id="clip0_264_4">
<rect width="25" height="25" fill="white"/>
</clipPath>
</defs>
</svg>
