<svg width="28" height="26" viewBox="0 0 28 26" fill="none" xmlns="http://www.w3.org/2000/svg">
<path fill-rule="evenodd" clip-rule="evenodd" d="M6.4949 0.0627444C2.71003 0.587006 0.461347 3.07372 0.0546732 7.18467C-0.0871083 8.61763 0.0388955 9.66962 0.526368 11.1228C1.67094 14.5346 5.19642 18.8538 10.3944 23.2125C11.19 23.8796 13.3515 25.5722 13.8229 25.8974L13.9718 26L14.4235 25.6605C19.0426 22.1892 23.4121 17.8211 25.6754 14.4123C26.7716 12.7613 27.549 11.02 27.8106 9.62964C27.8575 9.38039 27.8959 9.09591 27.8959 8.99754C27.8959 8.89917 27.9204 8.81867 27.9505 8.81867C27.9841 8.81867 28.003 8.55307 27.9996 8.12777C27.9962 7.69071 27.9781 7.4909 27.9505 7.58387C27.9109 7.71699 27.9063 7.71076 27.9013 7.51807C27.8908 7.106 27.7294 6.28327 27.5365 5.6581C26.5018 2.30556 23.5384 0.00359144 20.2527 4.6294e-06C18.1881 -0.00222977 16.3531 0.80439 14.8478 2.37576C14.6226 2.61085 14.3401 2.93842 14.22 3.10377C14.0999 3.26906 13.9893 3.40435 13.9743 3.40435C13.9593 3.40435 13.8488 3.26906 13.7286 3.10377C13.4418 2.70887 12.7805 2.02155 12.3365 1.6567C11.6416 1.08569 10.5907 0.525737 9.74102 0.273719C8.9007 0.0244656 7.45128 -0.069791 6.4949 0.0627444ZM0.0190231 8.20127C0.0191323 8.58935 0.0279766 8.74046 0.0386225 8.53707C0.049323 8.33368 0.0492684 8.01616 0.0384587 7.83147C0.027649 7.64678 0.0189139 7.81319 0.0190231 8.20127Z" fill="black"/>
</svg>
