<svg width="60" height="62" viewBox="0 0 60 62" fill="none" xmlns="http://www.w3.org/2000/svg">
<path d="M24.8572 0C23.4926 0 22.1838 0.544343 21.2189 1.51328C20.2539 2.48222 19.7118 3.79638 19.7118 5.16667V6.42733C19.7118 6.944 19.4031 7.409 18.94 7.626C17.6913 8.21715 16.492 8.90827 15.3537 9.69267C15.1483 9.83471 14.9074 9.91626 14.6583 9.92813C14.4092 9.94 14.1617 9.88171 13.9438 9.75983L12.8633 9.13467C11.6815 8.44956 10.2771 8.26389 8.959 8.61852C7.64089 8.97315 6.51706 9.83902 5.83472 11.0257L0.68934 19.9743C0.00705099 21.161 -0.177847 22.5712 0.17532 23.8948C0.528488 25.2184 1.3908 26.3468 2.57255 27.032L3.61192 27.6365C4.05442 27.8948 4.3014 28.3857 4.26023 28.9023C4.14696 30.2985 4.14696 31.7015 4.26023 33.0977C4.3014 33.6143 4.05442 34.1103 3.61192 34.3635L2.57255 34.968C1.3908 35.6532 0.528488 36.7816 0.17532 38.1052C-0.177847 39.4288 0.00705099 40.839 0.68934 42.0257L5.83472 50.9743C6.51706 52.161 7.64089 53.0268 8.959 53.3815C10.2771 53.7361 11.6815 53.5504 12.8633 52.8653L13.9438 52.2453C14.1612 52.1227 14.4084 52.0635 14.6576 52.0745C14.9067 52.0854 15.1478 52.1661 15.3537 52.3073C16.4857 53.0892 17.6811 53.7781 18.94 54.374C19.1678 54.4808 19.3611 54.6499 19.4976 54.8619C19.6341 55.0739 19.7083 55.3202 19.7118 55.5727V56.8333C19.7118 58.2036 20.2539 59.5178 21.2189 60.4867C22.1838 61.4557 23.4926 62 24.8572 62H35.148C36.5126 62 37.8213 61.4557 38.7863 60.4867C39.7512 59.5178 40.2933 58.2036 40.2933 56.8333V55.4848C40.2933 54.9682 40.5918 54.5083 41.0497 54.2913C42.2674 53.7023 43.4303 53.0221 44.5383 52.2505C44.7442 52.1074 44.986 52.0253 45.2362 52.0134C45.4863 52.0015 45.7348 52.0604 45.9533 52.1833L47.1367 52.8653C48.3185 53.5504 49.7229 53.7361 51.041 53.3815C52.3591 53.0268 53.4829 52.161 54.1653 50.9743L59.3107 42.0257C59.993 40.839 60.1779 39.4288 59.8247 38.1052C59.4715 36.7816 58.6092 35.6532 57.4275 34.968L56.2029 34.2602C55.9884 34.1317 55.814 33.9456 55.6994 33.7228C55.5848 33.5 55.5347 33.2495 55.5545 32.9995C55.6574 31.6685 55.6574 30.3315 55.5545 29.0005C55.5347 28.7505 55.5848 28.5 55.6994 28.2772C55.814 28.0544 55.9884 27.8683 56.2029 27.7398L57.4275 27.032C58.6092 26.3468 59.4715 25.2184 59.8247 23.8948C60.1779 22.5712 59.993 21.161 59.3107 19.9743L54.1653 11.0257C53.4829 9.83902 52.3591 8.97315 51.041 8.61852C49.7229 8.26389 48.3185 8.44956 47.1367 9.13467L45.9533 9.81667C45.7348 9.93958 45.4863 9.99845 45.2362 9.98657C44.986 9.9747 44.7442 9.89256 44.5383 9.7495C43.4305 8.97851 42.264 8.29613 41.0497 7.70867C40.8254 7.60119 40.6353 7.43307 40.5008 7.22317C40.3663 7.01327 40.2926 6.76989 40.2882 6.52033V5.16667C40.2882 3.79638 39.7461 2.48222 38.7811 1.51328C37.8162 0.544343 36.5074 0 35.1428 0H24.852H24.8572ZM40.1956 31C40.1956 33.7406 39.1114 36.3689 37.1815 38.3068C35.2516 40.2446 32.6341 41.3333 29.9048 41.3333C27.1755 41.3333 24.558 40.2446 22.6281 38.3068C20.6983 36.3689 19.614 33.7406 19.614 31C19.614 28.2594 20.6983 25.6311 22.6281 23.6932C24.558 21.7554 27.1755 20.6667 29.9048 20.6667C32.6341 20.6667 35.2516 21.7554 37.1815 23.6932C39.1114 25.6311 40.1956 28.2594 40.1956 31Z" fill="white"/>
</svg>
