<svg width="26" height="25" viewBox="0 0 26 25" fill="none" xmlns="http://www.w3.org/2000/svg">
<path fill-rule="evenodd" clip-rule="evenodd" d="M13.2657 0C6.35457 0 0.751221 5.59688 0.751221 12.5C0.751221 19.4031 6.35457 25 13.2657 25C20.1768 25 25.7802 19.4031 25.7802 12.5C25.7802 5.59688 20.1768 0 13.2657 0ZM19.0661 8.50104C18.8784 10.4771 18.0629 15.274 17.6489 17.4875C17.4737 18.425 17.1274 18.7385 16.7937 18.7687C16.0668 18.8354 15.5152 18.2885 14.8112 17.8281C13.71 17.1073 13.0874 16.6583 12.0184 15.9542C10.7826 15.1406 11.5835 14.6938 12.2875 13.9635C12.4721 13.7719 15.6737 10.8625 15.7363 10.599C15.7436 10.5656 15.7519 10.4427 15.6779 10.3781C15.6038 10.3135 15.4964 10.3354 15.4192 10.3531C15.3087 10.3781 13.5493 11.5396 10.1402 13.8375C9.64066 14.1802 9.18806 14.3469 8.78238 14.3385C8.33603 14.3292 7.4767 14.0865 6.83742 13.8781C6.05423 13.624 5.43059 13.4885 5.48482 13.0573C5.51298 12.8323 5.82271 12.6021 6.41506 12.3667C10.063 10.7792 12.496 9.73229 13.7131 9.22604C17.189 7.78229 17.9106 7.53125 18.382 7.52292C18.9723 7.51458 19.1141 8.00104 19.0661 8.50104Z" fill="#585858"/>
</svg>
