<svg width="26" height="25" viewBox="0 0 26 25" fill="none" xmlns="http://www.w3.org/2000/svg">
<path d="M24.1731 1.75417C22.4169 0 19.5897 0 13.9363 0H12.8934C7.24001 0 4.41278 0 2.65659 1.75417C0.900391 3.50833 0.900391 6.33229 0.900391 11.9792V13.0208C0.900391 18.6677 0.900391 21.4906 2.65659 23.2458C4.41278 25.001 7.24001 25 12.8934 25H13.9363C19.5897 25 22.4159 25 24.1731 23.2458C25.9293 21.4917 25.9293 18.6677 25.9293 13.0208V11.9792C25.9293 6.33229 25.9293 3.50833 24.1731 1.75417ZM21.2395 17.7083H19.4145C18.7189 17.7083 18.5145 17.1542 17.2766 15.9177C16.1931 14.875 15.729 14.7396 15.4589 14.7396C15.0908 14.7396 14.9813 14.8438 14.9813 15.3646V16.999C14.9813 17.4469 14.8384 17.7083 13.6777 17.7083C11.7442 17.7083 9.6188 16.5354 8.10977 14.3729C5.84673 11.2052 5.22831 8.81042 5.22831 8.32812C5.22831 8.05729 5.3326 7.8125 5.85403 7.8125H7.6801C8.14627 7.8125 8.32147 8.01667 8.49667 8.52083C9.38937 11.1177 10.8953 13.3875 11.5137 13.3875C11.7452 13.3875 11.8516 13.2802 11.8516 12.6927V10.0083C11.7838 8.77292 11.1258 8.67083 11.1258 8.23125C11.1258 8.02812 11.2999 7.8125 11.5898 7.8125H14.4588C14.8457 7.8125 14.9802 8.01875 14.9802 8.48229V12.0937C14.9802 12.4792 15.1481 12.6146 15.2639 12.6146C15.4964 12.6146 15.6894 12.4792 16.1149 12.0542C17.4299 10.5865 18.3581 8.32708 18.3581 8.32708C18.4749 8.05625 18.6876 7.81146 19.1527 7.81146H20.9778C21.5294 7.81146 21.6462 8.09479 21.5294 8.48125C21.2969 9.54375 19.0735 12.6719 19.0735 12.6719C18.8795 12.9812 18.8023 13.1354 19.0735 13.4833C19.2675 13.7542 19.9047 14.2948 20.3301 14.7969C21.1144 15.6781 21.7057 16.4208 21.8705 16.9333C22.0227 17.4479 21.761 17.7083 21.2395 17.7083Z" fill="#585858"/>
</svg>
